# xmcd
#
# Track frame offsets: 
#        150
#        18510
#        34537
#        50696
#        70396
#        85559
#        102013
#        122345
#        138761
#        155023
#        170253
#
# Disc length: 2520 seconds
#
# Revision: 0
# Processed by: cddbd v1.5.2PL0 Copyright (c) Steve Scherf et al.
# Submitted via: ExactAudioCopy v1.1
#
DISCID=8009d60b
DTITLE=Az Yet - She's Magic
DYEAR=2016
DGENRE=R&B
TTITLE0=She's Magic
TTITLE1=Love Her Mind
TTITLE2=Young Girl
TTITLE3=Real Man
TTITLE4=Quality Time
TTITLE5=Kiss From A Rose
TTITLE6=Last Night
TTITLE7=Better Than Sex
TTITLE8=Feel Good Blues
TTITLE9=Tell Her How I Feel
TTITLE10=One Last Cry
EXTD=
EXTT0=
EXTT1=
EXTT2=
EXTT3=
EXTT4=
EXTT5=
EXTT6=
EXTT7=
EXTT8=
EXTT9=
EXTT10=
PLAYORDER=
